%TF.GenerationSoftware,KiCad,Pcbnew,9.0.0*%
%TF.CreationDate,2025-03-20T23:20:09+05:30*%
%TF.ProjectId,buck_converter,6275636b-5f63-46f6-9e76-65727465722e,rev?*%
%TF.SameCoordinates,Original*%
%TF.FileFunction,Legend,Top*%
%TF.FilePolarity,Positive*%
%FSLAX46Y46*%
G04 Gerber Fmt 4.6, Leading zero omitted, Abs format (unit mm)*
G04 Created by KiCad (PCBNEW 9.0.0) date 2025-03-20 23:20:09*
%MOMM*%
%LPD*%
G01*
G04 APERTURE LIST*
%ADD10C,0.150000*%
%ADD11C,0.120000*%
G04 APERTURE END LIST*
D10*
X74263095Y-42689819D02*
X74263095Y-43499342D01*
X74263095Y-43499342D02*
X74310714Y-43594580D01*
X74310714Y-43594580D02*
X74358333Y-43642200D01*
X74358333Y-43642200D02*
X74453571Y-43689819D01*
X74453571Y-43689819D02*
X74644047Y-43689819D01*
X74644047Y-43689819D02*
X74739285Y-43642200D01*
X74739285Y-43642200D02*
X74786904Y-43594580D01*
X74786904Y-43594580D02*
X74834523Y-43499342D01*
X74834523Y-43499342D02*
X74834523Y-42689819D01*
X75834523Y-43689819D02*
X75263095Y-43689819D01*
X75548809Y-43689819D02*
X75548809Y-42689819D01*
X75548809Y-42689819D02*
X75453571Y-42832676D01*
X75453571Y-42832676D02*
X75358333Y-42927914D01*
X75358333Y-42927914D02*
X75263095Y-42975533D01*
X91404761Y-37454819D02*
X91071428Y-36978628D01*
X90833333Y-37454819D02*
X90833333Y-36454819D01*
X90833333Y-36454819D02*
X91214285Y-36454819D01*
X91214285Y-36454819D02*
X91309523Y-36502438D01*
X91309523Y-36502438D02*
X91357142Y-36550057D01*
X91357142Y-36550057D02*
X91404761Y-36645295D01*
X91404761Y-36645295D02*
X91404761Y-36788152D01*
X91404761Y-36788152D02*
X91357142Y-36883390D01*
X91357142Y-36883390D02*
X91309523Y-36931009D01*
X91309523Y-36931009D02*
X91214285Y-36978628D01*
X91214285Y-36978628D02*
X90833333Y-36978628D01*
X91690476Y-36454819D02*
X92023809Y-37454819D01*
X92023809Y-37454819D02*
X92357142Y-36454819D01*
X93214285Y-37454819D02*
X92642857Y-37454819D01*
X92928571Y-37454819D02*
X92928571Y-36454819D01*
X92928571Y-36454819D02*
X92833333Y-36597676D01*
X92833333Y-36597676D02*
X92738095Y-36692914D01*
X92738095Y-36692914D02*
X92642857Y-36740533D01*
X55358333Y-55084819D02*
X55025000Y-54608628D01*
X54786905Y-55084819D02*
X54786905Y-54084819D01*
X54786905Y-54084819D02*
X55167857Y-54084819D01*
X55167857Y-54084819D02*
X55263095Y-54132438D01*
X55263095Y-54132438D02*
X55310714Y-54180057D01*
X55310714Y-54180057D02*
X55358333Y-54275295D01*
X55358333Y-54275295D02*
X55358333Y-54418152D01*
X55358333Y-54418152D02*
X55310714Y-54513390D01*
X55310714Y-54513390D02*
X55263095Y-54561009D01*
X55263095Y-54561009D02*
X55167857Y-54608628D01*
X55167857Y-54608628D02*
X54786905Y-54608628D01*
X55691667Y-54084819D02*
X56310714Y-54084819D01*
X56310714Y-54084819D02*
X55977381Y-54465771D01*
X55977381Y-54465771D02*
X56120238Y-54465771D01*
X56120238Y-54465771D02*
X56215476Y-54513390D01*
X56215476Y-54513390D02*
X56263095Y-54561009D01*
X56263095Y-54561009D02*
X56310714Y-54656247D01*
X56310714Y-54656247D02*
X56310714Y-54894342D01*
X56310714Y-54894342D02*
X56263095Y-54989580D01*
X56263095Y-54989580D02*
X56215476Y-55037200D01*
X56215476Y-55037200D02*
X56120238Y-55084819D01*
X56120238Y-55084819D02*
X55834524Y-55084819D01*
X55834524Y-55084819D02*
X55739286Y-55037200D01*
X55739286Y-55037200D02*
X55691667Y-54989580D01*
X49069819Y-45626666D02*
X48593628Y-45959999D01*
X49069819Y-46198094D02*
X48069819Y-46198094D01*
X48069819Y-46198094D02*
X48069819Y-45817142D01*
X48069819Y-45817142D02*
X48117438Y-45721904D01*
X48117438Y-45721904D02*
X48165057Y-45674285D01*
X48165057Y-45674285D02*
X48260295Y-45626666D01*
X48260295Y-45626666D02*
X48403152Y-45626666D01*
X48403152Y-45626666D02*
X48498390Y-45674285D01*
X48498390Y-45674285D02*
X48546009Y-45721904D01*
X48546009Y-45721904D02*
X48593628Y-45817142D01*
X48593628Y-45817142D02*
X48593628Y-46198094D01*
X48165057Y-45245713D02*
X48117438Y-45198094D01*
X48117438Y-45198094D02*
X48069819Y-45102856D01*
X48069819Y-45102856D02*
X48069819Y-44864761D01*
X48069819Y-44864761D02*
X48117438Y-44769523D01*
X48117438Y-44769523D02*
X48165057Y-44721904D01*
X48165057Y-44721904D02*
X48260295Y-44674285D01*
X48260295Y-44674285D02*
X48355533Y-44674285D01*
X48355533Y-44674285D02*
X48498390Y-44721904D01*
X48498390Y-44721904D02*
X49069819Y-45293332D01*
X49069819Y-45293332D02*
X49069819Y-44674285D01*
X52858333Y-29584819D02*
X52525000Y-29108628D01*
X52286905Y-29584819D02*
X52286905Y-28584819D01*
X52286905Y-28584819D02*
X52667857Y-28584819D01*
X52667857Y-28584819D02*
X52763095Y-28632438D01*
X52763095Y-28632438D02*
X52810714Y-28680057D01*
X52810714Y-28680057D02*
X52858333Y-28775295D01*
X52858333Y-28775295D02*
X52858333Y-28918152D01*
X52858333Y-28918152D02*
X52810714Y-29013390D01*
X52810714Y-29013390D02*
X52763095Y-29061009D01*
X52763095Y-29061009D02*
X52667857Y-29108628D01*
X52667857Y-29108628D02*
X52286905Y-29108628D01*
X53810714Y-29584819D02*
X53239286Y-29584819D01*
X53525000Y-29584819D02*
X53525000Y-28584819D01*
X53525000Y-28584819D02*
X53429762Y-28727676D01*
X53429762Y-28727676D02*
X53334524Y-28822914D01*
X53334524Y-28822914D02*
X53239286Y-28870533D01*
X69404761Y-57280057D02*
X69309523Y-57232438D01*
X69309523Y-57232438D02*
X69214285Y-57137200D01*
X69214285Y-57137200D02*
X69071428Y-56994342D01*
X69071428Y-56994342D02*
X68976190Y-56946723D01*
X68976190Y-56946723D02*
X68880952Y-56946723D01*
X68928571Y-57184819D02*
X68833333Y-57137200D01*
X68833333Y-57137200D02*
X68738095Y-57041961D01*
X68738095Y-57041961D02*
X68690476Y-56851485D01*
X68690476Y-56851485D02*
X68690476Y-56518152D01*
X68690476Y-56518152D02*
X68738095Y-56327676D01*
X68738095Y-56327676D02*
X68833333Y-56232438D01*
X68833333Y-56232438D02*
X68928571Y-56184819D01*
X68928571Y-56184819D02*
X69119047Y-56184819D01*
X69119047Y-56184819D02*
X69214285Y-56232438D01*
X69214285Y-56232438D02*
X69309523Y-56327676D01*
X69309523Y-56327676D02*
X69357142Y-56518152D01*
X69357142Y-56518152D02*
X69357142Y-56851485D01*
X69357142Y-56851485D02*
X69309523Y-57041961D01*
X69309523Y-57041961D02*
X69214285Y-57137200D01*
X69214285Y-57137200D02*
X69119047Y-57184819D01*
X69119047Y-57184819D02*
X68928571Y-57184819D01*
X70309523Y-57184819D02*
X69738095Y-57184819D01*
X70023809Y-57184819D02*
X70023809Y-56184819D01*
X70023809Y-56184819D02*
X69928571Y-56327676D01*
X69928571Y-56327676D02*
X69833333Y-56422914D01*
X69833333Y-56422914D02*
X69738095Y-56470533D01*
X93358333Y-49684819D02*
X92882143Y-49684819D01*
X92882143Y-49684819D02*
X92882143Y-48684819D01*
X94215476Y-49684819D02*
X93644048Y-49684819D01*
X93929762Y-49684819D02*
X93929762Y-48684819D01*
X93929762Y-48684819D02*
X93834524Y-48827676D01*
X93834524Y-48827676D02*
X93739286Y-48922914D01*
X93739286Y-48922914D02*
X93644048Y-48970533D01*
X92261905Y-28984819D02*
X92261905Y-27984819D01*
X92261905Y-27984819D02*
X92500000Y-27984819D01*
X92500000Y-27984819D02*
X92642857Y-28032438D01*
X92642857Y-28032438D02*
X92738095Y-28127676D01*
X92738095Y-28127676D02*
X92785714Y-28222914D01*
X92785714Y-28222914D02*
X92833333Y-28413390D01*
X92833333Y-28413390D02*
X92833333Y-28556247D01*
X92833333Y-28556247D02*
X92785714Y-28746723D01*
X92785714Y-28746723D02*
X92738095Y-28841961D01*
X92738095Y-28841961D02*
X92642857Y-28937200D01*
X92642857Y-28937200D02*
X92500000Y-28984819D01*
X92500000Y-28984819D02*
X92261905Y-28984819D01*
X93785714Y-28984819D02*
X93214286Y-28984819D01*
X93500000Y-28984819D02*
X93500000Y-27984819D01*
X93500000Y-27984819D02*
X93404762Y-28127676D01*
X93404762Y-28127676D02*
X93309524Y-28222914D01*
X93309524Y-28222914D02*
X93214286Y-28270533D01*
X87658095Y-29354819D02*
X87658095Y-28354819D01*
X88229523Y-29354819D02*
X87800952Y-28783390D01*
X88229523Y-28354819D02*
X87658095Y-28926247D01*
X74833333Y-29859580D02*
X74785714Y-29907200D01*
X74785714Y-29907200D02*
X74642857Y-29954819D01*
X74642857Y-29954819D02*
X74547619Y-29954819D01*
X74547619Y-29954819D02*
X74404762Y-29907200D01*
X74404762Y-29907200D02*
X74309524Y-29811961D01*
X74309524Y-29811961D02*
X74261905Y-29716723D01*
X74261905Y-29716723D02*
X74214286Y-29526247D01*
X74214286Y-29526247D02*
X74214286Y-29383390D01*
X74214286Y-29383390D02*
X74261905Y-29192914D01*
X74261905Y-29192914D02*
X74309524Y-29097676D01*
X74309524Y-29097676D02*
X74404762Y-29002438D01*
X74404762Y-29002438D02*
X74547619Y-28954819D01*
X74547619Y-28954819D02*
X74642857Y-28954819D01*
X74642857Y-28954819D02*
X74785714Y-29002438D01*
X74785714Y-29002438D02*
X74833333Y-29050057D01*
X75214286Y-29050057D02*
X75261905Y-29002438D01*
X75261905Y-29002438D02*
X75357143Y-28954819D01*
X75357143Y-28954819D02*
X75595238Y-28954819D01*
X75595238Y-28954819D02*
X75690476Y-29002438D01*
X75690476Y-29002438D02*
X75738095Y-29050057D01*
X75738095Y-29050057D02*
X75785714Y-29145295D01*
X75785714Y-29145295D02*
X75785714Y-29240533D01*
X75785714Y-29240533D02*
X75738095Y-29383390D01*
X75738095Y-29383390D02*
X75166667Y-29954819D01*
X75166667Y-29954819D02*
X75785714Y-29954819D01*
X82333333Y-58109580D02*
X82285714Y-58157200D01*
X82285714Y-58157200D02*
X82142857Y-58204819D01*
X82142857Y-58204819D02*
X82047619Y-58204819D01*
X82047619Y-58204819D02*
X81904762Y-58157200D01*
X81904762Y-58157200D02*
X81809524Y-58061961D01*
X81809524Y-58061961D02*
X81761905Y-57966723D01*
X81761905Y-57966723D02*
X81714286Y-57776247D01*
X81714286Y-57776247D02*
X81714286Y-57633390D01*
X81714286Y-57633390D02*
X81761905Y-57442914D01*
X81761905Y-57442914D02*
X81809524Y-57347676D01*
X81809524Y-57347676D02*
X81904762Y-57252438D01*
X81904762Y-57252438D02*
X82047619Y-57204819D01*
X82047619Y-57204819D02*
X82142857Y-57204819D01*
X82142857Y-57204819D02*
X82285714Y-57252438D01*
X82285714Y-57252438D02*
X82333333Y-57300057D01*
X83285714Y-58204819D02*
X82714286Y-58204819D01*
X83000000Y-58204819D02*
X83000000Y-57204819D01*
X83000000Y-57204819D02*
X82904762Y-57347676D01*
X82904762Y-57347676D02*
X82809524Y-57442914D01*
X82809524Y-57442914D02*
X82714286Y-57490533D01*
D11*
%TO.C,U1*%
X75025000Y-44075000D02*
X73075000Y-44075000D01*
X75025000Y-44075000D02*
X76975000Y-44075000D01*
X75025000Y-49195000D02*
X73075000Y-49195000D01*
X75025000Y-49195000D02*
X76975000Y-49195000D01*
X72325000Y-44170000D02*
X72085000Y-43840000D01*
X72565000Y-43840000D01*
X72325000Y-44170000D01*
G36*
X72325000Y-44170000D02*
G01*
X72085000Y-43840000D01*
X72565000Y-43840000D01*
X72325000Y-44170000D01*
G37*
%TO.C,RV1*%
X88630000Y-40591000D02*
X88630000Y-42410000D01*
X89166000Y-38129000D02*
X95370000Y-38129000D01*
X89166000Y-44870000D02*
X95370000Y-44870000D01*
X95370000Y-38129000D02*
X95370000Y-40260000D01*
X95370000Y-42740000D02*
X95370000Y-44870000D01*
%TO.C,R3*%
X55355000Y-58000000D02*
X56565000Y-58000000D01*
X55355000Y-58000000D02*
G75*
G02*
X50615000Y-58000000I-2370000J0D01*
G01*
X50615000Y-58000000D02*
G75*
G02*
X55355000Y-58000000I2370000J0D01*
G01*
%TO.C,R2*%
X51985000Y-45630000D02*
X51985000Y-44420000D01*
X54355000Y-48000000D02*
G75*
G02*
X49615000Y-48000000I-2370000J0D01*
G01*
X49615000Y-48000000D02*
G75*
G02*
X54355000Y-48000000I2370000J0D01*
G01*
%TO.C,R1*%
X52855000Y-32500000D02*
X54065000Y-32500000D01*
X52855000Y-32500000D02*
G75*
G02*
X48115000Y-32500000I-2370000J0D01*
G01*
X48115000Y-32500000D02*
G75*
G02*
X52855000Y-32500000I2370000J0D01*
G01*
%TO.C,Q1*%
X64380000Y-57730000D02*
X64380000Y-62371000D01*
X64380000Y-57730000D02*
X74620000Y-57730000D01*
X64380000Y-59240000D02*
X74620000Y-59240000D01*
X64380000Y-62371000D02*
X74620000Y-62371000D01*
X67650000Y-57730000D02*
X67650000Y-59240000D01*
X71351000Y-57730000D02*
X71351000Y-59240000D01*
X74620000Y-57730000D02*
X74620000Y-62371000D01*
%TO.C,L1*%
X92985000Y-53500000D02*
X95935000Y-53500000D01*
X92985000Y-53500000D02*
G75*
G02*
X86445000Y-53500000I-3270000J0D01*
G01*
X86445000Y-53500000D02*
G75*
G02*
X92985000Y-53500000I3270000J0D01*
G01*
%TO.C,D1*%
X89260000Y-31000000D02*
X90280000Y-31000000D01*
X90280000Y-29530000D02*
X90280000Y-32470000D01*
X90280000Y-32470000D02*
X95720000Y-32470000D01*
X91060000Y-29530000D02*
X91060000Y-32470000D01*
X91180000Y-29530000D02*
X91180000Y-32470000D01*
X91300000Y-29530000D02*
X91300000Y-32470000D01*
X95720000Y-29530000D02*
X90280000Y-29530000D01*
X95720000Y-32470000D02*
X95720000Y-29530000D01*
X96740000Y-31000000D02*
X95720000Y-31000000D01*
%TO.C,C2*%
X70880000Y-30630000D02*
X70880000Y-33370000D01*
X70880000Y-30630000D02*
X79120000Y-30630000D01*
X70880000Y-33370000D02*
X79120000Y-33370000D01*
X79120000Y-30630000D02*
X79120000Y-33370000D01*
%TO.C,C1*%
X78380000Y-58880000D02*
X78380000Y-64120000D01*
X78380000Y-58880000D02*
X86620000Y-58880000D01*
X78380000Y-64120000D02*
X86620000Y-64120000D01*
X86620000Y-58880000D02*
X86620000Y-64120000D01*
%TD*%
M02*
