%TF.GenerationSoftware,KiCad,Pcbnew,9.0.0*%
%TF.CreationDate,2025-03-20T23:20:09+05:30*%
%TF.ProjectId,buck_converter,6275636b-5f63-46f6-9e76-65727465722e,rev?*%
%TF.SameCoordinates,Original*%
%TF.FileFunction,Copper,L1,Top*%
%TF.FilePolarity,Positive*%
%FSLAX46Y46*%
G04 Gerber Fmt 4.6, Leading zero omitted, Abs format (unit mm)*
G04 Created by KiCad (PCBNEW 9.0.0) date 2025-03-20 23:20:09*
%MOMM*%
%LPD*%
G01*
G04 APERTURE LIST*
G04 Aperture macros list*
%AMRoundRect*
0 Rectangle with rounded corners*
0 $1 Rounding radius*
0 $2 $3 $4 $5 $6 $7 $8 $9 X,Y pos of 4 corners*
0 Add a 4 corners polygon primitive as box body*
4,1,4,$2,$3,$4,$5,$6,$7,$8,$9,$2,$3,0*
0 Add four circle primitives for the rounded corners*
1,1,$1+$1,$2,$3*
1,1,$1+$1,$4,$5*
1,1,$1+$1,$6,$7*
1,1,$1+$1,$8,$9*
0 Add four rect primitives between the rounded corners*
20,1,$1+$1,$2,$3,$4,$5,0*
20,1,$1+$1,$4,$5,$6,$7,0*
20,1,$1+$1,$6,$7,$8,$9,0*
20,1,$1+$1,$8,$9,$2,$3,0*%
G04 Aperture macros list end*
%TA.AperFunction,Conductor*%
%ADD10C,0.200000*%
%TD*%
%TA.AperFunction,SMDPad,CuDef*%
%ADD11RoundRect,0.150000X-0.825000X-0.150000X0.825000X-0.150000X0.825000X0.150000X-0.825000X0.150000X0*%
%TD*%
%TA.AperFunction,SMDPad,CuDef*%
%ADD12R,2.500000X2.000000*%
%TD*%
%TA.AperFunction,ComponentPad*%
%ADD13C,2.400000*%
%TD*%
%TA.AperFunction,ComponentPad*%
%ADD14O,2.400000X2.400000*%
%TD*%
%TA.AperFunction,ComponentPad*%
%ADD15R,1.905000X2.000000*%
%TD*%
%TA.AperFunction,ComponentPad*%
%ADD16O,1.905000X2.000000*%
%TD*%
%TA.AperFunction,ComponentPad*%
%ADD17C,2.200000*%
%TD*%
%TA.AperFunction,ComponentPad*%
%ADD18O,2.200000X2.200000*%
%TD*%
%TA.AperFunction,ComponentPad*%
%ADD19R,2.200000X2.200000*%
%TD*%
%TA.AperFunction,ComponentPad*%
%ADD20C,1.600000*%
%TD*%
%TA.AperFunction,ComponentPad*%
%ADD21C,2.000000*%
%TD*%
%TA.AperFunction,ViaPad*%
%ADD22C,0.600000*%
%TD*%
G04 APERTURE END LIST*
D10*
%TO.N,Net-(U1-DIS)*%
X74500000Y-45000000D02*
X78000000Y-46000000D01*
X52000000Y-48500000D02*
X68500000Y-46500000D01*
%TD*%
D11*
%TO.P,U1,1,GND*%
%TO.N,GND*%
X72550000Y-44730000D03*
%TO.P,U1,2,TR*%
%TO.N,Net-(U1-THR)*%
X72550000Y-46000000D03*
%TO.P,U1,3,Q*%
%TO.N,Net-(U1-Q)*%
X72550000Y-47270000D03*
%TO.P,U1,4,R*%
%TO.N,unconnected-(U1-R-Pad4)*%
X72550000Y-48540000D03*
%TO.P,U1,5,CV*%
%TO.N,Net-(U1-CV)*%
X77500000Y-48540000D03*
%TO.P,U1,6,THR*%
%TO.N,Net-(U1-THR)*%
X77500000Y-47270000D03*
%TO.P,U1,7,DIS*%
%TO.N,Net-(U1-DIS)*%
X77500000Y-46000000D03*
%TO.P,U1,8,VCC*%
%TO.N,+12V*%
X77500000Y-44730000D03*
%TD*%
D12*
%TO.P,RV1,1,1*%
%TO.N,Net-(U1-THR)*%
X87675000Y-43650000D03*
%TO.P,RV1,2,2*%
%TO.N,GND*%
X96325000Y-41500000D03*
%TO.P,RV1,3,3*%
%TO.N,Net-(R2-Pad2)*%
X87675000Y-39350000D03*
%TD*%
D13*
%TO.P,R3,1*%
%TO.N,Net-(Q1-G)*%
X52985000Y-58000000D03*
D14*
%TO.P,R3,2*%
%TO.N,Net-(U1-Q)*%
X58065000Y-58000000D03*
%TD*%
D13*
%TO.P,R2,1*%
%TO.N,Net-(U1-DIS)*%
X51985000Y-48000000D03*
D14*
%TO.P,R2,2*%
%TO.N,Net-(R2-Pad2)*%
X51985000Y-42920000D03*
%TD*%
D13*
%TO.P,R1,1*%
%TO.N,Net-(U1-DIS)*%
X50485000Y-32500000D03*
D14*
%TO.P,R1,2*%
%TO.N,+12V*%
X55565000Y-32500000D03*
%TD*%
D15*
%TO.P,Q1,1,G*%
%TO.N,Net-(Q1-G)*%
X66960000Y-61000000D03*
D16*
%TO.P,Q1,2,D*%
%TO.N,GND*%
X69500000Y-61000000D03*
%TO.P,Q1,3,S*%
%TO.N,Net-(Q1-S)*%
X72040000Y-61000000D03*
%TD*%
D17*
%TO.P,L1,1,1*%
%TO.N,Net-(Q1-S)*%
X89715000Y-53500000D03*
D18*
%TO.P,L1,2,2*%
%TO.N,Net-(D1-K)*%
X97335000Y-53500000D03*
%TD*%
D19*
%TO.P,D1,1,K*%
%TO.N,Net-(D1-K)*%
X87920000Y-31000000D03*
D18*
%TO.P,D1,2,A*%
%TO.N,GND*%
X98080000Y-31000000D03*
%TD*%
D20*
%TO.P,C2,1*%
%TO.N,GND*%
X72500000Y-32000000D03*
%TO.P,C2,2*%
%TO.N,Net-(U1-CV)*%
X77500000Y-32000000D03*
%TD*%
D21*
%TO.P,C1,1*%
%TO.N,GND*%
X80000000Y-61500000D03*
%TO.P,C1,2*%
%TO.N,Net-(U1-THR)*%
X85000000Y-61500000D03*
%TD*%
D22*
%TO.N,Net-(U1-DIS)*%
X74500000Y-45000000D03*
X68500000Y-46500000D03*
%TO.N,Net-(U1-Q)*%
X70500000Y-48500000D03*
X67000000Y-51000000D03*
%TO.N,Net-(U1-THR)*%
X81500000Y-55000000D03*
X79500000Y-51000000D03*
%TO.N,Net-(R2-Pad2)*%
X81000000Y-40000000D03*
X64750000Y-41750000D03*
%TD*%
D10*
%TO.N,Net-(U1-DIS)*%
X52000000Y-48000000D02*
X52500000Y-48500000D01*
X51985000Y-48000000D02*
X52000000Y-48000000D01*
%TO.N,Net-(U1-Q)*%
X71730000Y-47270000D02*
X72550000Y-47270000D01*
X70500000Y-48500000D02*
X71730000Y-47270000D01*
X60000000Y-58000000D02*
X67000000Y-51000000D01*
X58065000Y-58000000D02*
X60000000Y-58000000D01*
%TO.N,GND*%
X77000000Y-21000000D02*
X72500000Y-25500000D01*
X107000000Y-24500000D02*
X103500000Y-21000000D01*
X104500000Y-41500000D02*
X107000000Y-39000000D01*
X96325000Y-41500000D02*
X104500000Y-41500000D01*
X107000000Y-39000000D02*
X107000000Y-24500000D01*
X103500000Y-21000000D02*
X77000000Y-21000000D01*
X72500000Y-25500000D02*
X72500000Y-30498000D01*
X98080000Y-39745000D02*
X98080000Y-31000000D01*
X96325000Y-41500000D02*
X98080000Y-39745000D01*
%TO.N,Net-(U1-THR)*%
X82184000Y-49141000D02*
X87675000Y-43650000D01*
X76224000Y-48199032D02*
X76224000Y-48880968D01*
X76224000Y-48880968D02*
X76484032Y-49141000D01*
X77153032Y-47270000D02*
X76224000Y-48199032D01*
X77500000Y-47270000D02*
X77153032Y-47270000D01*
X76484032Y-49141000D02*
X82184000Y-49141000D01*
X85000000Y-58500000D02*
X81500000Y-55000000D01*
X85000000Y-61500000D02*
X85000000Y-58500000D01*
X78343032Y-51000000D02*
X79500000Y-51000000D01*
X76224000Y-48880968D02*
X78343032Y-51000000D01*
X76525001Y-47270000D02*
X76224000Y-47571001D01*
X76224000Y-47571001D02*
X76224000Y-48880968D01*
X77500000Y-47270000D02*
X76525001Y-47270000D01*
X87825000Y-43500000D02*
X88000000Y-43500000D01*
X87675000Y-43650000D02*
X87825000Y-43500000D01*
X76525001Y-47270000D02*
X75255001Y-46000000D01*
X75255001Y-46000000D02*
X72550000Y-46000000D01*
%TO.N,Net-(R2-Pad2)*%
X81650000Y-39350000D02*
X87675000Y-39350000D01*
X81000000Y-40000000D02*
X81650000Y-39350000D01*
X63580000Y-42920000D02*
X64750000Y-41750000D01*
X51985000Y-42920000D02*
X63580000Y-42920000D01*
%TO.N,Net-(U1-DIS)*%
X51985000Y-48000000D02*
X51985000Y-47515000D01*
%TO.N,+12V*%
X77500000Y-35442950D02*
X77500000Y-44730000D01*
X72956050Y-30899000D02*
X77500000Y-35442950D01*
X57166000Y-30899000D02*
X72956050Y-30899000D01*
X55565000Y-32500000D02*
X57166000Y-30899000D01*
%TO.N,Net-(D1-K)*%
X89226000Y-45391000D02*
X97335000Y-53500000D01*
X89226000Y-32306000D02*
X89226000Y-45391000D01*
X87920000Y-31000000D02*
X89226000Y-32306000D01*
%TO.N,GND*%
X79199000Y-62301000D02*
X80000000Y-61500000D01*
X69500000Y-61000000D02*
X70801000Y-62301000D01*
X70801000Y-62301000D02*
X79199000Y-62301000D01*
X72203032Y-44730000D02*
X72550000Y-44730000D01*
X69500000Y-47433032D02*
X72203032Y-44730000D01*
X69500000Y-61000000D02*
X69500000Y-47433032D01*
%TO.N,Net-(Q1-S)*%
X79540000Y-53500000D02*
X89715000Y-53500000D01*
X72040000Y-61000000D02*
X79540000Y-53500000D01*
%TO.N,Net-(Q1-G)*%
X55985000Y-61000000D02*
X66960000Y-61000000D01*
X52985000Y-58000000D02*
X55985000Y-61000000D01*
%TO.N,Net-(U1-DIS)*%
X50485000Y-46500000D02*
X51985000Y-48000000D01*
X50485000Y-32500000D02*
X50485000Y-46500000D01*
%TO.N,Net-(U1-CV)*%
X78474999Y-48540000D02*
X77500000Y-48540000D01*
X78776000Y-33276000D02*
X78776000Y-48238999D01*
X78776000Y-48238999D02*
X78474999Y-48540000D01*
X77500000Y-32000000D02*
X78776000Y-33276000D01*
%TO.N,GND*%
X72500000Y-44680000D02*
X72550000Y-44730000D01*
X72500000Y-32000000D02*
X72500000Y-44680000D01*
%TD*%
M02*
