%TF.GenerationSoftware,KiCad,Pcbnew,9.0.0*%
%TF.CreationDate,2025-03-24T09:19:30+05:30*%
%TF.ProjectId,boost_converter,626f6f73-745f-4636-9f6e-766572746572,rev?*%
%TF.SameCoordinates,Original*%
%TF.FileFunction,Copper,L1,Top*%
%TF.FilePolarity,Positive*%
%FSLAX46Y46*%
G04 Gerber Fmt 4.6, Leading zero omitted, Abs format (unit mm)*
G04 Created by KiCad (PCBNEW 9.0.0) date 2025-03-24 09:19:30*
%MOMM*%
%LPD*%
G01*
G04 APERTURE LIST*
G04 Aperture macros list*
%AMRoundRect*
0 Rectangle with rounded corners*
0 $1 Rounding radius*
0 $2 $3 $4 $5 $6 $7 $8 $9 X,Y pos of 4 corners*
0 Add a 4 corners polygon primitive as box body*
4,1,4,$2,$3,$4,$5,$6,$7,$8,$9,$2,$3,0*
0 Add four circle primitives for the rounded corners*
1,1,$1+$1,$2,$3*
1,1,$1+$1,$4,$5*
1,1,$1+$1,$6,$7*
1,1,$1+$1,$8,$9*
0 Add four rect primitives between the rounded corners*
20,1,$1+$1,$2,$3,$4,$5,0*
20,1,$1+$1,$4,$5,$6,$7,0*
20,1,$1+$1,$6,$7,$8,$9,0*
20,1,$1+$1,$8,$9,$2,$3,0*%
G04 Aperture macros list end*
%TA.AperFunction,SMDPad,CuDef*%
%ADD10RoundRect,0.250000X1.450000X-0.250000X1.450000X0.250000X-1.450000X0.250000X-1.450000X-0.250000X0*%
%TD*%
%TA.AperFunction,ComponentPad*%
%ADD11C,1.600000*%
%TD*%
%TA.AperFunction,ComponentPad*%
%ADD12O,1.600000X1.600000*%
%TD*%
%TA.AperFunction,SMDPad,CuDef*%
%ADD13R,1.850000X0.900000*%
%TD*%
%TA.AperFunction,SMDPad,CuDef*%
%ADD14R,1.150000X0.650000*%
%TD*%
%TA.AperFunction,SMDPad,CuDef*%
%ADD15R,1.350000X0.650000*%
%TD*%
%TA.AperFunction,SMDPad,CuDef*%
%ADD16R,1.350000X1.000000*%
%TD*%
%TA.AperFunction,ComponentPad*%
%ADD17C,2.000000*%
%TD*%
%TA.AperFunction,ComponentPad*%
%ADD18O,2.000000X2.000000*%
%TD*%
%TA.AperFunction,ComponentPad*%
%ADD19R,2.800000X2.800000*%
%TD*%
%TA.AperFunction,ComponentPad*%
%ADD20O,2.800000X2.800000*%
%TD*%
%TA.AperFunction,ComponentPad*%
%ADD21R,3.000000X3.000000*%
%TD*%
%TA.AperFunction,ComponentPad*%
%ADD22C,3.000000*%
%TD*%
%TA.AperFunction,SMDPad,CuDef*%
%ADD23RoundRect,0.150000X0.150000X-0.825000X0.150000X0.825000X-0.150000X0.825000X-0.150000X-0.825000X0*%
%TD*%
%TA.AperFunction,ComponentPad*%
%ADD24C,2.340000*%
%TD*%
%TA.AperFunction,ViaPad*%
%ADD25C,0.600000*%
%TD*%
%TA.AperFunction,Conductor*%
%ADD26C,0.200000*%
%TD*%
G04 APERTURE END LIST*
D10*
%TO.P,R1,1*%
%TO.N,+3.3V*%
X150170000Y-108560000D03*
%TO.P,R1,2*%
%TO.N,/r1*%
X150170000Y-107060000D03*
%TD*%
D11*
%TO.P,C1,1*%
%TO.N,/cv*%
X157100000Y-83250000D03*
D12*
%TO.P,C1,2*%
%TO.N,GND*%
X157100000Y-68250000D03*
%TD*%
D13*
%TO.P,Q1,1,D*%
%TO.N,/diode3*%
X146025000Y-78680000D03*
X148375000Y-78680000D03*
X146025000Y-72280000D03*
X148375000Y-72280000D03*
D14*
%TO.P,Q1,2,G*%
%TO.N,/q*%
X146250000Y-77030000D03*
D15*
%TO.P,Q1,3,S*%
%TO.N,GND*%
X148050000Y-77030000D03*
D16*
X146350000Y-75655000D03*
X148050000Y-75655000D03*
%TD*%
D17*
%TO.P,L1,1,1*%
%TO.N,+3.3V*%
X149500000Y-102000000D03*
D18*
%TO.P,L1,2,2*%
%TO.N,/diode3*%
X149500000Y-81680000D03*
%TD*%
D11*
%TO.P,C2,1*%
%TO.N,/thr*%
X161250000Y-83250000D03*
D12*
%TO.P,C2,2*%
%TO.N,GND*%
X161250000Y-68250000D03*
%TD*%
D19*
%TO.P,D3,1,K*%
%TO.N,Net-(D3-K)*%
X131060000Y-116110000D03*
D20*
%TO.P,D3,2,A*%
%TO.N,/r1*%
X131060000Y-105950000D03*
%TD*%
D19*
%TO.P,D4,1,K*%
%TO.N,/r1*%
X142150000Y-116110000D03*
D20*
%TO.P,D4,2,A*%
%TO.N,Net-(D4-A)*%
X142150000Y-105950000D03*
%TD*%
D11*
%TO.P,C3,1*%
%TO.N,/diode3n*%
X165400000Y-83250000D03*
D12*
%TO.P,C3,2*%
%TO.N,GND*%
X165400000Y-68250000D03*
%TD*%
D21*
%TO.P,BT1,1,+*%
%TO.N,+3.3V*%
X129204580Y-100950000D03*
D22*
%TO.P,BT1,2,-*%
%TO.N,GND*%
X129204580Y-80460000D03*
%TD*%
D23*
%TO.P,U1,1,GND*%
%TO.N,GND*%
X149145000Y-116535000D03*
%TO.P,U1,2,TR*%
%TO.N,/thr*%
X150415000Y-116535000D03*
%TO.P,U1,3,Q*%
%TO.N,/q*%
X151685000Y-116535000D03*
%TO.P,U1,4,R*%
%TO.N,+3.3V*%
X152955000Y-116535000D03*
%TO.P,U1,5,CV*%
%TO.N,/cv*%
X152955000Y-111585000D03*
%TO.P,U1,6,THR*%
%TO.N,/thr*%
X151685000Y-111585000D03*
%TO.P,U1,7,DIS*%
%TO.N,/r1*%
X150415000Y-111585000D03*
%TO.P,U1,8,VCC*%
%TO.N,+3.3V*%
X149145000Y-111585000D03*
%TD*%
D19*
%TO.P,D1,1,K*%
%TO.N,/diode3n*%
X119970000Y-116110000D03*
D20*
%TO.P,D1,2,A*%
%TO.N,/diode3*%
X119970000Y-105950000D03*
%TD*%
D24*
%TO.P,RV1,1,1*%
%TO.N,Net-(D4-A)*%
X168300000Y-101800000D03*
%TO.P,RV1,2,2*%
%TO.N,/thr*%
X163300000Y-86800000D03*
%TO.P,RV1,3,3*%
%TO.N,Net-(D3-K)*%
X158300000Y-101800000D03*
%TD*%
D25*
%TO.N,/diode3*%
X149250000Y-69250000D03*
X147750000Y-80500000D03*
%TO.N,/r1*%
X143000000Y-112250000D03*
X151000000Y-113750000D03*
%TO.N,Net-(D4-A)*%
X146000000Y-103750000D03*
X164250000Y-103750000D03*
%TD*%
D26*
%TO.N,+3.3V*%
X149500000Y-102000000D02*
X147768000Y-103732000D01*
X149746000Y-112186000D02*
X149145000Y-111585000D01*
X152653999Y-117811000D02*
X150074032Y-117811000D01*
X149145000Y-109585000D02*
X150170000Y-108560000D01*
X147768000Y-103732000D02*
X147768000Y-116774968D01*
X149746000Y-117482968D02*
X149746000Y-112186000D01*
X152955000Y-116535000D02*
X152955000Y-117509999D01*
X152955000Y-117509999D02*
X152653999Y-117811000D01*
X147768000Y-116774968D02*
X148804032Y-117811000D01*
X129204580Y-100950000D02*
X148450000Y-100950000D01*
X148450000Y-100950000D02*
X149500000Y-102000000D01*
X150074032Y-117811000D02*
X149746000Y-117482968D01*
X149746000Y-117550968D02*
X149746000Y-112186000D01*
X148804032Y-117811000D02*
X149485968Y-117811000D01*
X149145000Y-111585000D02*
X149145000Y-109585000D01*
X149485968Y-117811000D02*
X149746000Y-117550968D01*
%TO.N,GND*%
X157100000Y-68250000D02*
X165400000Y-68250000D01*
X148169000Y-115559000D02*
X149145000Y-116535000D01*
X150801000Y-102538892D02*
X148169000Y-105170892D01*
X129204580Y-80460000D02*
X134009580Y-75655000D01*
X148050000Y-75655000D02*
X146350000Y-75655000D01*
X150801000Y-78406000D02*
X150801000Y-102538892D01*
X155455000Y-68250000D02*
X148050000Y-75655000D01*
X148169000Y-105170892D02*
X148169000Y-115559000D01*
X157100000Y-68250000D02*
X155455000Y-68250000D01*
X148050000Y-75655000D02*
X150801000Y-78406000D01*
X148050000Y-75655000D02*
X148050000Y-77030000D01*
X134009580Y-75655000D02*
X146350000Y-75655000D01*
%TO.N,/cv*%
X152955000Y-111585000D02*
X152955000Y-87395000D01*
X152955000Y-87395000D02*
X157100000Y-83250000D01*
%TO.N,/thr*%
X161250000Y-84750000D02*
X163300000Y-86800000D01*
X153250000Y-113250000D02*
X150415000Y-116085000D01*
X151685000Y-111585000D02*
X151685000Y-112559999D01*
X151685000Y-112559999D02*
X152375001Y-113250000D01*
X150415000Y-116085000D02*
X150415000Y-116535000D01*
X153556000Y-96544000D02*
X153556000Y-112944000D01*
X152375001Y-113250000D02*
X153250000Y-113250000D01*
X163300000Y-86800000D02*
X153556000Y-96544000D01*
X153556000Y-112944000D02*
X153250000Y-113250000D01*
X161250000Y-83250000D02*
X161250000Y-84750000D01*
%TO.N,/diode3n*%
X170750000Y-121500000D02*
X121000000Y-121500000D01*
X121000000Y-121500000D02*
X119970000Y-120470000D01*
X173000000Y-119250000D02*
X170750000Y-121500000D01*
X173000000Y-85000000D02*
X173000000Y-119250000D01*
X171250000Y-83250000D02*
X165400000Y-83250000D01*
X171250000Y-83250000D02*
X173000000Y-85000000D01*
X119970000Y-120470000D02*
X119970000Y-116110000D01*
%TO.N,/diode3*%
X119970000Y-105950000D02*
X146025000Y-79895000D01*
X146025000Y-72280000D02*
X148375000Y-72280000D01*
X148375000Y-80555000D02*
X149500000Y-81680000D01*
X148375000Y-72280000D02*
X148375000Y-70125000D01*
X146025000Y-78680000D02*
X148375000Y-78680000D01*
X148375000Y-70125000D02*
X149250000Y-69250000D01*
X148375000Y-79875000D02*
X148375000Y-78680000D01*
X147750000Y-80500000D02*
X148375000Y-79875000D01*
X148375000Y-78680000D02*
X148375000Y-80555000D01*
X146025000Y-79895000D02*
X146025000Y-78680000D01*
%TO.N,/r1*%
X152171000Y-108074840D02*
X152171000Y-109045160D01*
X150415000Y-113165000D02*
X150415000Y-111585000D01*
X142150000Y-116110000D02*
X143000000Y-115260000D01*
X150170000Y-107060000D02*
X151156160Y-107060000D01*
X151000000Y-113750000D02*
X150415000Y-113165000D01*
X131060000Y-105950000D02*
X141220000Y-116110000D01*
X151156160Y-107060000D02*
X152171000Y-108074840D01*
X143000000Y-115260000D02*
X143000000Y-112250000D01*
X152171000Y-109045160D02*
X150415000Y-110801160D01*
X141220000Y-116110000D02*
X142150000Y-116110000D01*
X150415000Y-110801160D02*
X150415000Y-111585000D01*
%TO.N,Net-(D3-K)*%
X131060000Y-116110000D02*
X131060000Y-119310000D01*
X150606968Y-120500000D02*
X158300000Y-112806968D01*
X131060000Y-119310000D02*
X132250000Y-120500000D01*
X158300000Y-112806968D02*
X158300000Y-101800000D01*
X132250000Y-120500000D02*
X150606968Y-120500000D01*
%TO.N,Net-(D4-A)*%
X164250000Y-103750000D02*
X166200000Y-101800000D01*
X142150000Y-105950000D02*
X144350000Y-103750000D01*
X144350000Y-103750000D02*
X146000000Y-103750000D01*
X166200000Y-101800000D02*
X168300000Y-101800000D01*
%TO.N,/q*%
X156829000Y-110238100D02*
X156829000Y-101190691D01*
X132083900Y-120901000D02*
X118269000Y-107086100D01*
X151685000Y-116535000D02*
X151685000Y-115382100D01*
X157690691Y-100329000D02*
X158909309Y-100329000D01*
X156829000Y-101190691D02*
X157690691Y-100329000D01*
X151685000Y-115382100D02*
X156829000Y-110238100D01*
X145475000Y-77030000D02*
X146250000Y-77030000D01*
X118269000Y-104236000D02*
X145475000Y-77030000D01*
X150773068Y-120901000D02*
X132083900Y-120901000D01*
X159771000Y-101190691D02*
X159771000Y-111903068D01*
X158909309Y-100329000D02*
X159771000Y-101190691D01*
X118269000Y-107086100D02*
X118269000Y-104236000D01*
X159771000Y-111903068D02*
X150773068Y-120901000D01*
%TD*%
M02*
