%TF.GenerationSoftware,KiCad,Pcbnew,9.0.0*%
%TF.CreationDate,2025-03-24T09:19:30+05:30*%
%TF.ProjectId,boost_converter,626f6f73-745f-4636-9f6e-766572746572,rev?*%
%TF.SameCoordinates,Original*%
%TF.FileFunction,Legend,Top*%
%TF.FilePolarity,Positive*%
%FSLAX46Y46*%
G04 Gerber Fmt 4.6, Leading zero omitted, Abs format (unit mm)*
G04 Created by KiCad (PCBNEW 9.0.0) date 2025-03-24 09:19:30*
%MOMM*%
%LPD*%
G01*
G04 APERTURE LIST*
%ADD10C,0.150000*%
%ADD11C,0.120000*%
G04 APERTURE END LIST*
D10*
X147974819Y-107976666D02*
X147498628Y-108309999D01*
X147974819Y-108548094D02*
X146974819Y-108548094D01*
X146974819Y-108548094D02*
X146974819Y-108167142D01*
X146974819Y-108167142D02*
X147022438Y-108071904D01*
X147022438Y-108071904D02*
X147070057Y-108024285D01*
X147070057Y-108024285D02*
X147165295Y-107976666D01*
X147165295Y-107976666D02*
X147308152Y-107976666D01*
X147308152Y-107976666D02*
X147403390Y-108024285D01*
X147403390Y-108024285D02*
X147451009Y-108071904D01*
X147451009Y-108071904D02*
X147498628Y-108167142D01*
X147498628Y-108167142D02*
X147498628Y-108548094D01*
X147974819Y-107024285D02*
X147974819Y-107595713D01*
X147974819Y-107309999D02*
X146974819Y-107309999D01*
X146974819Y-107309999D02*
X147117676Y-107405237D01*
X147117676Y-107405237D02*
X147212914Y-107500475D01*
X147212914Y-107500475D02*
X147260533Y-107595713D01*
X155039580Y-75916666D02*
X155087200Y-75964285D01*
X155087200Y-75964285D02*
X155134819Y-76107142D01*
X155134819Y-76107142D02*
X155134819Y-76202380D01*
X155134819Y-76202380D02*
X155087200Y-76345237D01*
X155087200Y-76345237D02*
X154991961Y-76440475D01*
X154991961Y-76440475D02*
X154896723Y-76488094D01*
X154896723Y-76488094D02*
X154706247Y-76535713D01*
X154706247Y-76535713D02*
X154563390Y-76535713D01*
X154563390Y-76535713D02*
X154372914Y-76488094D01*
X154372914Y-76488094D02*
X154277676Y-76440475D01*
X154277676Y-76440475D02*
X154182438Y-76345237D01*
X154182438Y-76345237D02*
X154134819Y-76202380D01*
X154134819Y-76202380D02*
X154134819Y-76107142D01*
X154134819Y-76107142D02*
X154182438Y-75964285D01*
X154182438Y-75964285D02*
X154230057Y-75916666D01*
X155134819Y-74964285D02*
X155134819Y-75535713D01*
X155134819Y-75249999D02*
X154134819Y-75249999D01*
X154134819Y-75249999D02*
X154277676Y-75345237D01*
X154277676Y-75345237D02*
X154372914Y-75440475D01*
X154372914Y-75440475D02*
X154420533Y-75535713D01*
X151250057Y-75575238D02*
X151202438Y-75670476D01*
X151202438Y-75670476D02*
X151107200Y-75765714D01*
X151107200Y-75765714D02*
X150964342Y-75908571D01*
X150964342Y-75908571D02*
X150916723Y-76003809D01*
X150916723Y-76003809D02*
X150916723Y-76099047D01*
X151154819Y-76051428D02*
X151107200Y-76146666D01*
X151107200Y-76146666D02*
X151011961Y-76241904D01*
X151011961Y-76241904D02*
X150821485Y-76289523D01*
X150821485Y-76289523D02*
X150488152Y-76289523D01*
X150488152Y-76289523D02*
X150297676Y-76241904D01*
X150297676Y-76241904D02*
X150202438Y-76146666D01*
X150202438Y-76146666D02*
X150154819Y-76051428D01*
X150154819Y-76051428D02*
X150154819Y-75860952D01*
X150154819Y-75860952D02*
X150202438Y-75765714D01*
X150202438Y-75765714D02*
X150297676Y-75670476D01*
X150297676Y-75670476D02*
X150488152Y-75622857D01*
X150488152Y-75622857D02*
X150821485Y-75622857D01*
X150821485Y-75622857D02*
X151011961Y-75670476D01*
X151011961Y-75670476D02*
X151107200Y-75765714D01*
X151107200Y-75765714D02*
X151154819Y-75860952D01*
X151154819Y-75860952D02*
X151154819Y-76051428D01*
X151154819Y-74670476D02*
X151154819Y-75241904D01*
X151154819Y-74956190D02*
X150154819Y-74956190D01*
X150154819Y-74956190D02*
X150297676Y-75051428D01*
X150297676Y-75051428D02*
X150392914Y-75146666D01*
X150392914Y-75146666D02*
X150440533Y-75241904D01*
X144084819Y-92006666D02*
X144084819Y-92482856D01*
X144084819Y-92482856D02*
X143084819Y-92482856D01*
X144084819Y-91149523D02*
X144084819Y-91720951D01*
X144084819Y-91435237D02*
X143084819Y-91435237D01*
X143084819Y-91435237D02*
X143227676Y-91530475D01*
X143227676Y-91530475D02*
X143322914Y-91625713D01*
X143322914Y-91625713D02*
X143370533Y-91720951D01*
X159189580Y-75916666D02*
X159237200Y-75964285D01*
X159237200Y-75964285D02*
X159284819Y-76107142D01*
X159284819Y-76107142D02*
X159284819Y-76202380D01*
X159284819Y-76202380D02*
X159237200Y-76345237D01*
X159237200Y-76345237D02*
X159141961Y-76440475D01*
X159141961Y-76440475D02*
X159046723Y-76488094D01*
X159046723Y-76488094D02*
X158856247Y-76535713D01*
X158856247Y-76535713D02*
X158713390Y-76535713D01*
X158713390Y-76535713D02*
X158522914Y-76488094D01*
X158522914Y-76488094D02*
X158427676Y-76440475D01*
X158427676Y-76440475D02*
X158332438Y-76345237D01*
X158332438Y-76345237D02*
X158284819Y-76202380D01*
X158284819Y-76202380D02*
X158284819Y-76107142D01*
X158284819Y-76107142D02*
X158332438Y-75964285D01*
X158332438Y-75964285D02*
X158380057Y-75916666D01*
X158380057Y-75535713D02*
X158332438Y-75488094D01*
X158332438Y-75488094D02*
X158284819Y-75392856D01*
X158284819Y-75392856D02*
X158284819Y-75154761D01*
X158284819Y-75154761D02*
X158332438Y-75059523D01*
X158332438Y-75059523D02*
X158380057Y-75011904D01*
X158380057Y-75011904D02*
X158475295Y-74964285D01*
X158475295Y-74964285D02*
X158570533Y-74964285D01*
X158570533Y-74964285D02*
X158713390Y-75011904D01*
X158713390Y-75011904D02*
X159284819Y-75583332D01*
X159284819Y-75583332D02*
X159284819Y-74964285D01*
X125629819Y-111768094D02*
X124629819Y-111768094D01*
X124629819Y-111768094D02*
X124629819Y-111529999D01*
X124629819Y-111529999D02*
X124677438Y-111387142D01*
X124677438Y-111387142D02*
X124772676Y-111291904D01*
X124772676Y-111291904D02*
X124867914Y-111244285D01*
X124867914Y-111244285D02*
X125058390Y-111196666D01*
X125058390Y-111196666D02*
X125201247Y-111196666D01*
X125201247Y-111196666D02*
X125391723Y-111244285D01*
X125391723Y-111244285D02*
X125486961Y-111291904D01*
X125486961Y-111291904D02*
X125582200Y-111387142D01*
X125582200Y-111387142D02*
X125629819Y-111529999D01*
X125629819Y-111529999D02*
X125629819Y-111768094D01*
X124629819Y-110863332D02*
X124629819Y-110244285D01*
X124629819Y-110244285D02*
X125010771Y-110577618D01*
X125010771Y-110577618D02*
X125010771Y-110434761D01*
X125010771Y-110434761D02*
X125058390Y-110339523D01*
X125058390Y-110339523D02*
X125106009Y-110291904D01*
X125106009Y-110291904D02*
X125201247Y-110244285D01*
X125201247Y-110244285D02*
X125439342Y-110244285D01*
X125439342Y-110244285D02*
X125534580Y-110291904D01*
X125534580Y-110291904D02*
X125582200Y-110339523D01*
X125582200Y-110339523D02*
X125629819Y-110434761D01*
X125629819Y-110434761D02*
X125629819Y-110720475D01*
X125629819Y-110720475D02*
X125582200Y-110815713D01*
X125582200Y-110815713D02*
X125534580Y-110863332D01*
X129114819Y-116371904D02*
X128114819Y-116371904D01*
X129114819Y-115800476D02*
X128543390Y-116229047D01*
X128114819Y-115800476D02*
X128686247Y-116371904D01*
X136719819Y-111768094D02*
X135719819Y-111768094D01*
X135719819Y-111768094D02*
X135719819Y-111529999D01*
X135719819Y-111529999D02*
X135767438Y-111387142D01*
X135767438Y-111387142D02*
X135862676Y-111291904D01*
X135862676Y-111291904D02*
X135957914Y-111244285D01*
X135957914Y-111244285D02*
X136148390Y-111196666D01*
X136148390Y-111196666D02*
X136291247Y-111196666D01*
X136291247Y-111196666D02*
X136481723Y-111244285D01*
X136481723Y-111244285D02*
X136576961Y-111291904D01*
X136576961Y-111291904D02*
X136672200Y-111387142D01*
X136672200Y-111387142D02*
X136719819Y-111529999D01*
X136719819Y-111529999D02*
X136719819Y-111768094D01*
X136053152Y-110339523D02*
X136719819Y-110339523D01*
X135672200Y-110577618D02*
X136386485Y-110815713D01*
X136386485Y-110815713D02*
X136386485Y-110196666D01*
X140204819Y-116371904D02*
X139204819Y-116371904D01*
X140204819Y-115800476D02*
X139633390Y-116229047D01*
X139204819Y-115800476D02*
X139776247Y-116371904D01*
X163339580Y-75916666D02*
X163387200Y-75964285D01*
X163387200Y-75964285D02*
X163434819Y-76107142D01*
X163434819Y-76107142D02*
X163434819Y-76202380D01*
X163434819Y-76202380D02*
X163387200Y-76345237D01*
X163387200Y-76345237D02*
X163291961Y-76440475D01*
X163291961Y-76440475D02*
X163196723Y-76488094D01*
X163196723Y-76488094D02*
X163006247Y-76535713D01*
X163006247Y-76535713D02*
X162863390Y-76535713D01*
X162863390Y-76535713D02*
X162672914Y-76488094D01*
X162672914Y-76488094D02*
X162577676Y-76440475D01*
X162577676Y-76440475D02*
X162482438Y-76345237D01*
X162482438Y-76345237D02*
X162434819Y-76202380D01*
X162434819Y-76202380D02*
X162434819Y-76107142D01*
X162434819Y-76107142D02*
X162482438Y-75964285D01*
X162482438Y-75964285D02*
X162530057Y-75916666D01*
X162434819Y-75583332D02*
X162434819Y-74964285D01*
X162434819Y-74964285D02*
X162815771Y-75297618D01*
X162815771Y-75297618D02*
X162815771Y-75154761D01*
X162815771Y-75154761D02*
X162863390Y-75059523D01*
X162863390Y-75059523D02*
X162911009Y-75011904D01*
X162911009Y-75011904D02*
X163006247Y-74964285D01*
X163006247Y-74964285D02*
X163244342Y-74964285D01*
X163244342Y-74964285D02*
X163339580Y-75011904D01*
X163339580Y-75011904D02*
X163387200Y-75059523D01*
X163387200Y-75059523D02*
X163434819Y-75154761D01*
X163434819Y-75154761D02*
X163434819Y-75440475D01*
X163434819Y-75440475D02*
X163387200Y-75535713D01*
X163387200Y-75535713D02*
X163339580Y-75583332D01*
X124635589Y-102985714D02*
X124683208Y-102842857D01*
X124683208Y-102842857D02*
X124730827Y-102795238D01*
X124730827Y-102795238D02*
X124826065Y-102747619D01*
X124826065Y-102747619D02*
X124968922Y-102747619D01*
X124968922Y-102747619D02*
X125064160Y-102795238D01*
X125064160Y-102795238D02*
X125111780Y-102842857D01*
X125111780Y-102842857D02*
X125159399Y-102938095D01*
X125159399Y-102938095D02*
X125159399Y-103319047D01*
X125159399Y-103319047D02*
X124159399Y-103319047D01*
X124159399Y-103319047D02*
X124159399Y-102985714D01*
X124159399Y-102985714D02*
X124207018Y-102890476D01*
X124207018Y-102890476D02*
X124254637Y-102842857D01*
X124254637Y-102842857D02*
X124349875Y-102795238D01*
X124349875Y-102795238D02*
X124445113Y-102795238D01*
X124445113Y-102795238D02*
X124540351Y-102842857D01*
X124540351Y-102842857D02*
X124587970Y-102890476D01*
X124587970Y-102890476D02*
X124635589Y-102985714D01*
X124635589Y-102985714D02*
X124635589Y-103319047D01*
X124159399Y-102461904D02*
X124159399Y-101890476D01*
X125159399Y-102176190D02*
X124159399Y-102176190D01*
X125159399Y-101033333D02*
X125159399Y-101604761D01*
X125159399Y-101319047D02*
X124159399Y-101319047D01*
X124159399Y-101319047D02*
X124302256Y-101414285D01*
X124302256Y-101414285D02*
X124397494Y-101509523D01*
X124397494Y-101509523D02*
X124445113Y-101604761D01*
X129319280Y-98771428D02*
X129319280Y-97628571D01*
X129890708Y-98199999D02*
X128747851Y-98199999D01*
X147104819Y-114821904D02*
X147914342Y-114821904D01*
X147914342Y-114821904D02*
X148009580Y-114774285D01*
X148009580Y-114774285D02*
X148057200Y-114726666D01*
X148057200Y-114726666D02*
X148104819Y-114631428D01*
X148104819Y-114631428D02*
X148104819Y-114440952D01*
X148104819Y-114440952D02*
X148057200Y-114345714D01*
X148057200Y-114345714D02*
X148009580Y-114298095D01*
X148009580Y-114298095D02*
X147914342Y-114250476D01*
X147914342Y-114250476D02*
X147104819Y-114250476D01*
X148104819Y-113250476D02*
X148104819Y-113821904D01*
X148104819Y-113536190D02*
X147104819Y-113536190D01*
X147104819Y-113536190D02*
X147247676Y-113631428D01*
X147247676Y-113631428D02*
X147342914Y-113726666D01*
X147342914Y-113726666D02*
X147390533Y-113821904D01*
X114539819Y-111768094D02*
X113539819Y-111768094D01*
X113539819Y-111768094D02*
X113539819Y-111529999D01*
X113539819Y-111529999D02*
X113587438Y-111387142D01*
X113587438Y-111387142D02*
X113682676Y-111291904D01*
X113682676Y-111291904D02*
X113777914Y-111244285D01*
X113777914Y-111244285D02*
X113968390Y-111196666D01*
X113968390Y-111196666D02*
X114111247Y-111196666D01*
X114111247Y-111196666D02*
X114301723Y-111244285D01*
X114301723Y-111244285D02*
X114396961Y-111291904D01*
X114396961Y-111291904D02*
X114492200Y-111387142D01*
X114492200Y-111387142D02*
X114539819Y-111529999D01*
X114539819Y-111529999D02*
X114539819Y-111768094D01*
X114539819Y-110244285D02*
X114539819Y-110815713D01*
X114539819Y-110529999D02*
X113539819Y-110529999D01*
X113539819Y-110529999D02*
X113682676Y-110625237D01*
X113682676Y-110625237D02*
X113777914Y-110720475D01*
X113777914Y-110720475D02*
X113825533Y-110815713D01*
X118024819Y-116371904D02*
X117024819Y-116371904D01*
X118024819Y-115800476D02*
X117453390Y-116229047D01*
X117024819Y-115800476D02*
X117596247Y-116371904D01*
X155004819Y-94895238D02*
X154528628Y-95228571D01*
X155004819Y-95466666D02*
X154004819Y-95466666D01*
X154004819Y-95466666D02*
X154004819Y-95085714D01*
X154004819Y-95085714D02*
X154052438Y-94990476D01*
X154052438Y-94990476D02*
X154100057Y-94942857D01*
X154100057Y-94942857D02*
X154195295Y-94895238D01*
X154195295Y-94895238D02*
X154338152Y-94895238D01*
X154338152Y-94895238D02*
X154433390Y-94942857D01*
X154433390Y-94942857D02*
X154481009Y-94990476D01*
X154481009Y-94990476D02*
X154528628Y-95085714D01*
X154528628Y-95085714D02*
X154528628Y-95466666D01*
X154004819Y-94609523D02*
X155004819Y-94276190D01*
X155004819Y-94276190D02*
X154004819Y-93942857D01*
X155004819Y-93085714D02*
X155004819Y-93657142D01*
X155004819Y-93371428D02*
X154004819Y-93371428D01*
X154004819Y-93371428D02*
X154147676Y-93466666D01*
X154147676Y-93466666D02*
X154242914Y-93561904D01*
X154242914Y-93561904D02*
X154290533Y-93657142D01*
D11*
%TO.C,R1*%
X148460000Y-107992983D02*
X148460000Y-107627017D01*
X151880000Y-107992983D02*
X151880000Y-107627017D01*
%TO.C,C1*%
X155680000Y-73730000D02*
X155680000Y-77770000D01*
X155680000Y-77770000D02*
X158520000Y-77770000D01*
X157100000Y-69290000D02*
X157100000Y-73730000D01*
X157100000Y-82210000D02*
X157100000Y-77770000D01*
X158520000Y-73730000D02*
X155680000Y-73730000D01*
X158520000Y-77770000D02*
X158520000Y-73730000D01*
%TO.C,Q1*%
X144700000Y-72680000D02*
X144800000Y-72580000D01*
X144700000Y-78280000D02*
X144700000Y-72680000D01*
X144800000Y-78380000D02*
X144700000Y-78280000D01*
X144800000Y-79130000D02*
X144800000Y-78380000D01*
X149600000Y-72580000D02*
X149700000Y-72680000D01*
X149700000Y-72680000D02*
X149700000Y-78280000D01*
X149700000Y-78280000D02*
X149600000Y-78380000D01*
%TO.C,L1*%
X144630000Y-83720000D02*
X144630000Y-99960000D01*
X144630000Y-99960000D02*
X154370000Y-99960000D01*
X149500000Y-82920000D02*
X149500000Y-83720000D01*
X149500000Y-100760000D02*
X149500000Y-99960000D01*
X154370000Y-83720000D02*
X144630000Y-83720000D01*
X154370000Y-99960000D02*
X154370000Y-83720000D01*
%TO.C,C2*%
X159830000Y-73730000D02*
X159830000Y-77770000D01*
X159830000Y-77770000D02*
X162670000Y-77770000D01*
X161250000Y-69290000D02*
X161250000Y-73730000D01*
X161250000Y-82210000D02*
X161250000Y-77770000D01*
X162670000Y-73730000D02*
X159830000Y-73730000D01*
X162670000Y-77770000D02*
X162670000Y-73730000D01*
%TO.C,D3*%
X126175000Y-107100000D02*
X129420000Y-107100000D01*
X126175000Y-113577000D02*
X135945000Y-113577000D01*
X126175000Y-113697000D02*
X135945000Y-113697000D01*
X126175000Y-113817000D02*
X135945000Y-113817000D01*
X126175000Y-114960000D02*
X126175000Y-107100000D01*
X129420000Y-114960000D02*
X126175000Y-114960000D01*
X132700000Y-114960000D02*
X135945000Y-114960000D01*
X135945000Y-107100000D02*
X132700000Y-107100000D01*
X135945000Y-114960000D02*
X135945000Y-107100000D01*
%TO.C,D4*%
X137265000Y-107100000D02*
X140510000Y-107100000D01*
X137265000Y-113577000D02*
X147035000Y-113577000D01*
X137265000Y-113697000D02*
X147035000Y-113697000D01*
X137265000Y-113817000D02*
X147035000Y-113817000D01*
X137265000Y-114960000D02*
X137265000Y-107100000D01*
X140510000Y-114960000D02*
X137265000Y-114960000D01*
X143790000Y-114960000D02*
X147035000Y-114960000D01*
X147035000Y-107100000D02*
X143790000Y-107100000D01*
X147035000Y-114960000D02*
X147035000Y-107100000D01*
%TO.C,C3*%
X163980000Y-73730000D02*
X163980000Y-77770000D01*
X163980000Y-77770000D02*
X166820000Y-77770000D01*
X165400000Y-69290000D02*
X165400000Y-73730000D01*
X165400000Y-82210000D02*
X165400000Y-77770000D01*
X166820000Y-73730000D02*
X163980000Y-73730000D01*
X166820000Y-77770000D02*
X166820000Y-73730000D01*
%TO.C,BT1*%
X126154580Y-100000000D02*
X126154580Y-102450000D01*
X126704580Y-103000000D02*
X131704580Y-103000000D01*
X132254580Y-102450000D02*
X132254580Y-100000000D01*
X125599811Y-99300000D02*
G75*
G02*
X129204580Y-71750000I3520069J13550250D01*
G01*
X125684580Y-99300000D02*
G75*
G02*
X126154578Y-100000000I-286280J-700000D01*
G01*
X126704580Y-103000000D02*
G75*
G02*
X126154580Y-102450000I-1J549999D01*
G01*
X129204580Y-71750000D02*
G75*
G02*
X132724580Y-99300000I-32J-13999875D01*
G01*
X132254580Y-100000000D02*
G75*
G02*
X132724579Y-99299998I756280J0D01*
G01*
X132254580Y-102450000D02*
G75*
G02*
X131704580Y-103000000I-549999J-1D01*
G01*
%TO.C,U1*%
X148490000Y-114060000D02*
X148490000Y-112110000D01*
X148490000Y-114060000D02*
X148490000Y-116010000D01*
X153610000Y-114060000D02*
X153610000Y-112110000D01*
X153610000Y-114060000D02*
X153610000Y-116010000D01*
X148585000Y-116760000D02*
X148255000Y-117000000D01*
X148255000Y-116520000D01*
X148585000Y-116760000D01*
G36*
X148585000Y-116760000D02*
G01*
X148255000Y-117000000D01*
X148255000Y-116520000D01*
X148585000Y-116760000D01*
G37*
%TO.C,D1*%
X115085000Y-107100000D02*
X118330000Y-107100000D01*
X115085000Y-113577000D02*
X124855000Y-113577000D01*
X115085000Y-113697000D02*
X124855000Y-113697000D01*
X115085000Y-113817000D02*
X124855000Y-113817000D01*
X115085000Y-114960000D02*
X115085000Y-107100000D01*
X118330000Y-114960000D02*
X115085000Y-114960000D01*
X121610000Y-114960000D02*
X124855000Y-114960000D01*
X124855000Y-107100000D02*
X121610000Y-107100000D01*
X124855000Y-114960000D02*
X124855000Y-107100000D01*
%TO.C,RV1*%
X158819693Y-100464378D02*
G75*
G02*
X161978000Y-86795000I4480307J6164378D01*
G01*
X159489945Y-100897988D02*
G75*
G02*
X159261999Y-100761001I3809355J6596888D01*
G01*
X164623199Y-86795765D02*
G75*
G02*
X170920000Y-94300000I-1323199J-7504235D01*
G01*
X166876144Y-101027987D02*
G75*
G02*
X159722000Y-101027000I-3576144J6727987D01*
G01*
X167336981Y-100762048D02*
G75*
G02*
X167109000Y-100898999I-4036481J6461248D01*
G01*
X170918548Y-94167936D02*
G75*
G02*
X167778000Y-100465000I-7618548J-132064D01*
G01*
%TD*%
M02*
